<svg width="59" height="57" viewBox="0 0 59 57" fill="none" xmlns="http://www.w3.org/2000/svg">
<path d="M41.5835 28.4082C41.5835 27.1014 42.6662 26.0408 44.0002 26.0408C45.3342 26.0408 46.4168 27.1014 46.4168 28.4082C46.4168 29.7149 45.3342 30.7755 44.0002 30.7755C42.6662 30.7755 41.5835 29.7149 41.5835 28.4082ZM54.8752 26.0408H54.8679C53.6523 22.9135 51.5426 20.1201 48.8335 18.0558V10.6578C48.8335 9.47885 48.2414 8.3804 47.2482 7.71991C46.2501 7.05469 44.9813 6.91975 43.8576 7.35771C39.8701 8.90832 37.3785 11.7136 36.8468 15.2504C36.7477 15.8967 37.2021 16.498 37.8642 16.5951C38.5192 16.6922 39.1378 16.2447 39.2345 15.5984C39.7517 12.1776 42.5187 10.4258 44.7493 9.55934C45.1336 9.41257 45.5492 9.45281 45.89 9.68008C46.2259 9.90261 46.4192 10.2601 46.4192 10.6602V18.65C46.4192 19.0287 46.6053 19.3862 46.9171 19.6087C49.6962 21.5807 51.8084 24.4192 52.8669 27.5962C53.0288 28.0838 53.4928 28.4129 54.0172 28.4129H54.8655C55.4213 28.4271 56.0883 28.6425 56.0883 29.5966V36.6986C56.0883 37.3496 55.5446 37.8823 54.88 37.8823H53.575C53.0844 37.8823 52.6422 38.1711 52.4561 38.6185C50.6339 42.9673 46.9751 46.2958 42.4221 47.7494C41.9267 47.908 41.5883 48.3625 41.5883 48.8762V50.9027C41.5883 52.8605 39.9619 54.4537 37.9633 54.4537C35.9647 54.4537 34.3383 52.8605 34.3383 50.9027C34.3383 50.2493 33.797 49.719 33.13 49.719H23.4633C22.7963 49.719 22.255 50.2493 22.255 50.9027C22.255 52.8605 20.6286 54.4537 18.63 54.4537C16.6314 54.4537 15.005 52.8605 15.005 50.9027V48.8762C15.005 48.3625 14.6691 47.9104 14.1712 47.7494C6.7714 45.3844 2.18699 38.4102 3.01832 30.7873C3.58865 25.565 6.92124 20.951 11.9286 18.4487C12.5231 18.1528 12.7599 17.4379 12.4554 16.8579C12.1509 16.2755 11.4235 16.0411 10.8314 16.3418C8.66124 17.426 6.76899 18.8607 5.21507 20.5486C3.82065 19.6892 2.92165 18.2215 2.92165 16.5785C2.92165 13.9673 5.0894 11.8438 7.75499 11.8438C8.42199 11.8438 8.96332 11.3135 8.96332 10.6602C8.96332 10.0068 8.42199 9.47649 7.75499 9.47649C3.75782 9.47649 0.504985 12.6629 0.504985 16.5785C0.504985 18.9624 1.73024 21.1428 3.6974 22.4495C2.01299 24.8382 0.930319 27.5962 0.611319 30.5317C-0.311848 38.9878 4.57949 46.7504 12.5835 49.7095V50.898C12.5835 54.1625 15.295 56.8163 18.6252 56.8163C21.5445 56.8163 23.9829 54.7804 24.546 52.0816H32.0377C32.5983 54.7804 35.0416 56.8163 37.9585 56.8163C41.2911 56.8163 44.0002 54.1625 44.0002 50.898V49.7072C48.587 48.0051 52.3014 44.615 54.3604 40.2449H54.8752C56.8737 40.2449 58.5002 38.6517 58.5002 36.6939V29.5918C58.5002 26.9854 56.3324 26.0408 54.8752 26.0408ZM15.1838 7.60628C15.8847 4.02685 18.7774 1.07477 22.3782 0.258037C25.329 -0.409555 28.3547 0.243832 30.6795 2.05249C33.0019 3.86114 34.3335 6.56465 34.3335 9.46702C34.3335 13.082 32.26 16.3252 28.9202 17.9303C28.5383 18.1149 28.2918 18.515 28.2918 18.9553V20.5959C28.2918 22.2933 26.8829 23.6735 25.1502 23.6735H24.1835C22.3927 23.6735 21.0418 22.2602 21.0418 20.3876V18.953C21.0418 18.5103 20.7905 18.1149 20.3869 17.9184C16.4381 16.008 14.3477 11.8651 15.1814 7.60628H15.1838ZM25.8752 18.9553C25.8752 18.9553 25.8776 18.9435 25.8776 18.9388H23.4561C23.4561 18.9388 23.4561 18.9482 23.4561 18.953V20.3876C23.4561 20.9368 23.7485 21.3061 24.1811 21.3061H25.1477C25.5489 21.3061 25.8727 20.9889 25.8727 20.5959V18.9553H25.8752ZM21.4575 15.7973C21.8587 15.9914 22.1849 16.266 22.4773 16.5714H26.8563C27.1439 16.266 27.4677 15.9914 27.8568 15.8068C30.3605 14.6042 31.9168 12.1753 31.9168 9.46938C31.9168 7.29142 30.9163 5.26498 29.1739 3.90612C27.881 2.9 26.2957 2.36971 24.6499 2.36971C24.0772 2.36971 23.4972 2.43363 22.922 2.5662C20.2371 3.17224 18.0814 5.37861 17.557 8.05371C16.9287 11.2544 18.4971 14.3651 21.4575 15.7973Z" fill="black"/>
</svg>
