<svg width="64" height="59" viewBox="0 0 64 59" fill="none" xmlns="http://www.w3.org/2000/svg">
<path d="M16.2643 24.0407L19.1545 26.9309M7.91468 15.6911L11.1261 18.9024M24.2927 32.0691L27.5041 35.2805M34.5691 39.7764H38.4228M7.55519 2.83595L20.4774 6.06651C21.2956 6.27106 22.1516 6.27106 22.9698 6.06651L41.0303 1.55139C41.8485 1.34684 42.7045 1.34684 43.5227 1.55139L58.9373 5.40505C61.2247 5.97689 62.8293 8.03209 62.8293 10.3899V51.1793C62.8293 54.522 59.6879 56.9748 56.4449 56.1641L43.5227 52.9335C42.7045 52.729 41.8485 52.729 41.0303 52.9335L22.9698 57.4486C22.1516 57.6532 21.2956 57.6532 20.4774 57.4486L5.06279 53.595C2.77542 53.0231 1.17078 50.9679 1.17078 48.6102V7.82074C1.17078 4.47797 4.31222 2.02521 7.55519 2.83595ZM55.122 19.5587C55.122 25.032 48.6992 32.0691 48.6992 32.0691C48.6992 32.0691 42.2765 25.032 42.2765 19.5587C42.2765 16.9677 45.0291 14.0854 48.6992 14.0854C52.3694 14.0854 55.122 16.9677 55.122 19.5587Z" stroke="black" stroke-width="1.92683" stroke-linecap="round" stroke-linejoin="round"/>
</svg>
