<svg width="56" height="65" viewBox="0 0 56 65" fill="none" xmlns="http://www.w3.org/2000/svg">
<path d="M54.6132 58.6209L47.7197 58.6582C47.6354 58.6582 47.5533 58.6769 47.4713 58.7081L39.8396 61.8665C37.4576 62.8539 36.9164 62.6514 34.3125 61.6703L33.9687 61.5394C29.5329 59.8793 23.3182 56.6024 19.9801 54.8395C19.0619 54.3535 18.3477 53.9798 17.9774 53.7991C16.3605 52.8584 16.0744 51.2387 16.345 50.0395C16.6466 48.7095 17.7001 47.5071 19.2882 48.0117L32.7556 52.6404H32.76C32.8576 52.6747 32.9574 52.684 33.055 52.6715L40.1501 51.9551C40.638 51.9053 41.0062 51.3072 40.9707 50.622C40.9352 49.9367 40.5204 49.4321 40.0214 49.4695L33.0569 50.1734C31.9812 49.7062 31.4622 48.1176 31.5043 46.7377C31.531 45.8812 31.8259 43.8378 33.9751 43.3769L40.101 42.0562C40.2917 42.0375 40.4914 42.0126 40.6999 41.9877C42.8313 41.7198 45.75 41.3523 50.1791 46.4762C50.3343 46.6568 50.5273 46.7565 50.7291 46.7596L54.5972 46.8531C55.1029 46.825 55.491 46.3173 55.4999 45.6289C55.5087 44.9405 55.1184 44.3736 54.6282 44.3612L51.0662 44.274C46.1979 38.7919 42.6647 39.2373 40.5423 39.502C40.3449 39.5269 40.1563 39.5519 39.9035 39.5799L34.5428 40.7324L28.7848 38.7544C27.6005 38.3806 26.4427 38.9195 25.7596 40.1623C25.4779 40.6763 25.3094 41.2587 25.2406 41.8568C23.921 41.4955 22.6567 41.9533 21.7563 43.1463C21.1796 43.9095 20.8203 44.8938 20.7005 45.9341L19.6892 45.5853C17.1141 44.7692 15.2045 46.8281 14.65 49.2857C14.1244 51.6063 14.7388 54.6121 17.3382 56.1258C17.7463 56.3283 18.4471 56.6959 19.3521 57.1724C22.7189 58.9479 28.9891 62.2559 33.507 63.9472L33.8486 64.078C35.3302 64.6356 36.2928 65 37.3574 65C38.1891 65 39.0829 64.7788 40.3383 64.2587L47.8484 61.1532L54.613 61.1158C55.1032 61.1127 55.498 60.552 55.4958 59.8637C55.5002 59.1753 55.0967 58.6427 54.6132 58.6209ZM27.1731 41.6857C27.2973 41.4583 27.6677 40.9568 28.3841 41.1811L31.3938 42.2152C30.999 42.6295 30.6841 43.1092 30.4379 43.6262L26.9957 42.4426C26.9912 42.1809 27.0445 41.9193 27.1731 41.6857ZM22.9834 44.9594C23.4847 44.296 24.1988 44.0686 24.9751 44.3147L29.7925 45.9717C29.7681 46.1929 29.7437 46.414 29.737 46.629C29.7104 47.5105 29.8124 48.3608 30.0209 49.1333L22.4443 46.5293C22.471 45.953 22.6574 45.3893 22.9834 44.9594Z" fill="black"/>
<path d="M17.4299 28.7589C17.6583 28.7309 17.8757 28.7029 18.1551 28.6717L24.3031 27.3511L30.8991 29.6187C31.1741 29.7059 31.4469 29.7495 31.7131 29.7495C32.7134 29.7495 33.6316 29.1546 34.2216 28.0799C34.5587 27.4663 34.7561 26.7624 34.8116 26.0428C35.182 26.1581 35.548 26.2172 35.9028 26.2172C37.0073 26.2172 38.0276 25.6753 38.8039 24.6505C39.4759 23.7628 39.8862 22.601 39.9927 21.3799L41.2791 21.8222C44.1447 22.7317 46.2694 20.4423 46.886 17.7138C47.4671 15.1409 46.7818 11.8049 43.894 10.126C43.4239 9.89554 42.6187 9.46881 41.5786 8.92061C37.7393 6.89594 30.5907 3.12703 25.4431 1.19892L25.055 1.05252C21.9854 -0.106177 20.9518 -0.492437 17.7203 0.846946L9.12341 4.40095L1.38275 4.44456C0.894804 4.44456 0.497795 5.00524 0.500009 5.69361C0.502227 6.37888 0.899233 6.93332 1.38718 6.93332H1.39161L9.25833 6.88972C9.34261 6.88972 9.42467 6.87103 9.50673 6.83988L18.2234 3.23292C20.9781 2.09288 21.6723 2.35451 24.598 3.45719L24.9883 3.60359C30.0541 5.50052 37.147 9.24144 40.9597 11.2505C42.0154 11.808 42.8338 12.2379 43.2641 12.4497C45.1892 13.571 45.5242 15.5115 45.1981 16.9568C44.8388 18.5516 43.5834 19.9938 41.6893 19.3926L26.317 14.1037C26.3148 14.1037 26.3126 14.1037 26.3104 14.1005C26.2106 14.0663 26.1108 14.0569 26.0154 14.0694L17.9113 14.8949C17.4234 14.9447 17.0552 15.5427 17.0907 16.228C17.1262 16.9133 17.5609 17.4272 18.04 17.3805L26.0157 16.5707C27.3199 17.122 27.952 19.0314 27.901 20.6854C27.8344 22.8129 26.741 24.308 24.9755 24.6848L17.969 26.1955C17.7517 26.2173 17.521 26.2454 17.2815 26.2734C14.966 26.5631 11.4685 26.9992 6.37143 21.109C6.21618 20.9283 6.02322 20.8286 5.82361 20.8255L1.40326 20.7227C0.926409 20.7196 0.509448 21.2585 0.50059 21.9469C0.491733 22.6353 0.882076 23.2021 1.37226 23.2146L5.47766 23.3143C9.67838 28.0613 12.9168 28.9209 15.3543 28.9209C16.124 28.9209 16.8155 28.8337 17.4299 28.7589ZM38.2382 20.7722C38.2338 21.526 38.012 22.2735 37.5884 22.8342C36.9851 23.6316 36.129 23.9057 35.1952 23.6129L29.5905 21.6879C29.6282 21.3889 29.6571 21.0898 29.6659 20.797C29.7014 19.6913 29.5528 18.6291 29.2579 17.6853L38.2382 20.7722ZM28.9338 24.0241L33.0392 25.435C33.0725 25.8182 33.0015 26.22 32.8174 26.5564C32.66 26.8429 32.1987 27.4752 31.3048 27.1949L27.5898 25.9178C28.1664 25.382 28.6122 24.7373 28.9338 24.0241Z" fill="black"/>
</svg>
